<svg viewBox="0 0 330 200" xmlns="http://www.w3.org/2000/svg"><g><g><g><g><g><line x1="47" y1="174" x2="42" y2="174" style="visibility: inherit;" fill="rgb(0, 0, 0)" stroke="rgb(204, 204, 204)" stroke-width="1px"></line><line x1="47" y1="152.25000000000003" x2="42" y2="152.25000000000003" style="visibility: inherit;" fill="rgb(0, 0, 0)" stroke="rgb(204, 204, 204)" stroke-width="1px"></line><line x1="47" y1="130.5" x2="42" y2="130.5" style="visibility: inherit;" fill="rgb(0, 0, 0)" stroke="rgb(204, 204, 204)" stroke-width="1px"></line><line x1="47" y1="108.75000000000004" x2="42" y2="108.75000000000004" style="visibility: inherit;" fill="rgb(0, 0, 0)" stroke="rgb(204, 204, 204)" stroke-width="1px"></line><line x1="47" y1="87" x2="42" y2="87" style="visibility: inherit;" fill="rgb(0, 0, 0)" stroke="rgb(204, 204, 204)" stroke-width="1px"></line><line x1="47" y1="65.24999999999999" x2="42" y2="65.24999999999999" style="visibility: inherit;" fill="rgb(0, 0, 0)" stroke="rgb(204, 204, 204)" stroke-width="1px"></line><line x1="47" y1="43.5" x2="42" y2="43.5" style="visibility: inherit;" fill="rgb(0, 0, 0)" stroke="rgb(204, 204, 204)" stroke-width="1px"></line><line x1="47" y1="21.749999999999982" x2="42" y2="21.749999999999982" style="visibility: inherit;" fill="rgb(0, 0, 0)" stroke="rgb(204, 204, 204)" stroke-width="1px"></line><line x1="47" y1="0" x2="42" y2="0" style="visibility: inherit;" fill="rgb(0, 0, 0)" stroke="rgb(204, 204, 204)" stroke-width="1px"></line></g><g transform="translate(37, 0)"><text x="0" y="174" dx="0em" dy="0.3em" style="text-anchor: end; visibility: hidden; font-family: Roboto, sans-serif; font-size: 12px; font-weight: 200;" fill="rgb(33, 33, 33)" stroke="none" stroke-width="1px">0.55</text><text x="0" y="152.25000000000003" dx="0em" dy="0.3em" style="text-anchor: end; visibility: inherit; font-family: Roboto, sans-serif; font-size: 12px; font-weight: 200;" fill="rgb(33, 33, 33)" stroke="none" stroke-width="1px">0.6</text><text x="0" y="130.5" dx="0em" dy="0.3em" style="text-anchor: end; visibility: hidden; font-family: Roboto, sans-serif; font-size: 12px; font-weight: 200;" fill="rgb(33, 33, 33)" stroke="none" stroke-width="1px">0.65</text><text x="0" y="108.75000000000004" dx="0em" dy="0.3em" style="text-anchor: end; visibility: inherit; font-family: Roboto, sans-serif; font-size: 12px; font-weight: 200;" fill="rgb(33, 33, 33)" stroke="none" stroke-width="1px">0.7</text><text x="0" y="87" dx="0em" dy="0.3em" style="text-anchor: end; visibility: hidden; font-family: Roboto, sans-serif; font-size: 12px; font-weight: 200;" fill="rgb(33, 33, 33)" stroke="none" stroke-width="1px">0.75</text><text x="0" y="65.24999999999999" dx="0em" dy="0.3em" style="text-anchor: end; visibility: inherit; font-family: Roboto, sans-serif; font-size: 12px; font-weight: 200;" fill="rgb(33, 33, 33)" stroke="none" stroke-width="1px">0.8</text><text x="0" y="43.5" dx="0em" dy="0.3em" style="text-anchor: end; visibility: hidden; font-family: Roboto, sans-serif; font-size: 12px; font-weight: 200;" fill="rgb(33, 33, 33)" stroke="none" stroke-width="1px">0.85</text><text x="0" y="21.749999999999982" dx="0em" dy="0.3em" style="text-anchor: end; visibility: inherit; font-family: Roboto, sans-serif; font-size: 12px; font-weight: 200;" fill="rgb(33, 33, 33)" stroke="none" stroke-width="1px">0.9</text><text x="0" y="0" dx="0em" dy="0.3em" style="text-anchor: end; visibility: hidden; font-family: Roboto, sans-serif; font-size: 12px; font-weight: 200;" fill="rgb(33, 33, 33)" stroke="none" stroke-width="1px">0.95</text></g><line x1="47" y1="0" x2="47" y2="174" fill="rgb(0, 0, 0)" stroke="rgb(204, 204, 204)" stroke-width="1px"></line></g></g><g transform="translate(47, 0)" clip-path="url(#clip_0)"><clipPath id="clip_0"><rect width="283" height="174"></rect></clipPath><g><g><g><line x1="0" y1="0" x2="0" y2="174" fill="rgb(0, 0, 0)" stroke="rgb(66, 66, 66)" stroke-width="1px" opacity="0.25"></line><line x1="35.375" y1="0" x2="35.375" y2="174" fill="rgb(0, 0, 0)" stroke="rgb(66, 66, 66)" stroke-width="1px" opacity="0.25"></line><line x1="70.75" y1="0" x2="70.75" y2="174" fill="rgb(0, 0, 0)" stroke="rgb(66, 66, 66)" stroke-width="1px" opacity="0.25"></line><line x1="106.125" y1="0" x2="106.125" y2="174" fill="rgb(0, 0, 0)" stroke="rgb(66, 66, 66)" stroke-width="1px" opacity="0.25"></line><line x1="141.5" y1="0" x2="141.5" y2="174" fill="rgb(0, 0, 0)" stroke="rgb(66, 66, 66)" stroke-width="1px" opacity="0.25"></line><line x1="176.875" y1="0" x2="176.875" y2="174" fill="rgb(0, 0, 0)" stroke="rgb(66, 66, 66)" stroke-width="1px" opacity="0.25"></line><line x1="212.25" y1="0" x2="212.25" y2="174" fill="rgb(0, 0, 0)" stroke="rgb(66, 66, 66)" stroke-width="1px" opacity="0.25"></line><line x1="247.625" y1="0" x2="247.625" y2="174" fill="rgb(0, 0, 0)" stroke="rgb(66, 66, 66)" stroke-width="1px" opacity="0.25"></line><line x1="283" y1="0" x2="283" y2="174" fill="rgb(0, 0, 0)" stroke="rgb(66, 66, 66)" stroke-width="1px" opacity="0.25"></line></g><g><line x1="0" y1="174" x2="283" y2="174" fill="rgb(0, 0, 0)" stroke="rgb(66, 66, 66)" stroke-width="1px" opacity="0.25"></line><line x1="0" y1="152.25000000000003" x2="283" y2="152.25000000000003" fill="rgb(0, 0, 0)" stroke="rgb(66, 66, 66)" stroke-width="1px" opacity="0.25"></line><line x1="0" y1="130.5" x2="283" y2="130.5" fill="rgb(0, 0, 0)" stroke="rgb(66, 66, 66)" stroke-width="1px" opacity="0.25"></line><line x1="0" y1="108.75000000000004" x2="283" y2="108.75000000000004" fill="rgb(0, 0, 0)" stroke="rgb(66, 66, 66)" stroke-width="1px" opacity="0.25"></line><line x1="0" y1="87" x2="283" y2="87" fill="rgb(0, 0, 0)" stroke="rgb(66, 66, 66)" stroke-width="1px" opacity="0.25"></line><line x1="0" y1="65.24999999999999" x2="283" y2="65.24999999999999" fill="rgb(0, 0, 0)" stroke="rgb(66, 66, 66)" stroke-width="1px" opacity="0.25"></line><line x1="0" y1="43.5" x2="283" y2="43.5" fill="rgb(0, 0, 0)" stroke="rgb(66, 66, 66)" stroke-width="1px" opacity="0.25"></line><line x1="0" y1="21.749999999999982" x2="283" y2="21.749999999999982" fill="rgb(0, 0, 0)" stroke="rgb(66, 66, 66)" stroke-width="1px" opacity="0.25"></line><line x1="0" y1="0" x2="283" y2="0" fill="rgb(0, 0, 0)" stroke="rgb(66, 66, 66)" stroke-width="1px" opacity="0.25"></line></g></g></g><g><g><line x1="0" y1="413.25000000000006" x2="283" y2="413.25000000000006" fill="rgb(0, 0, 0)" stroke="rgb(153, 153, 153)" stroke-width="1.5px"></line></g></g><g><g><line x1="35.375" y1="0" x2="35.375" y2="174" fill="rgb(0, 0, 0)" stroke="rgb(153, 153, 153)" stroke-width="1.5px"></line></g></g><g><g><g><g><g><path stroke="rgb(255, 112, 67)" stroke-width="2px" d="M42.449999999999996,223.88470244407657L49.525,149.2586342205807L56.6,108.01037713534694L63.675000000000004,82.79710012422018L70.75,65.44445080445355L77.825,52.81773906377904L84.89999999999999,44.31045044820939L91.97500000000001,37.29631170273303L99.05,31.653863477288688L106.125,27.74754397671591L113.2,25.01311610963174L120.27499999999999,30.660713267854508L127.35000000000001,34.497916775179725L134.42499999999998,34.329167986823435L141.5,35.59974135875392L148.57500000000002,34.973860001575076L155.65,33.61608358943097L162.725,32.97020398178041L169.79999999999998,30.95955835143263L176.875,30.4264590283375L183.95000000000002,26.04461791050045L191.025,22.559078644366462L198.1,20.04164885156052L205.17499999999998,18.420485647967478L212.25,17.181084230795435L219.32500000000002,16.254600146031038L226.4,15.762202877586521L233.475,15.141170880129092L240.54999999999998,14.71466301842817L247.625,14.244261005496618" style="fill: none;" fill="none"></path></g><g><path stroke="rgb(0, 119, 187)" stroke-width="2px" d="M42.449999999999996,219.34096270054582L49.525,144.79245861330813L56.6,105.65394950679993L63.675000000000004,81.18038395752428L70.75,64.31637641811531L77.825,52.191895936526514L84.89999999999999,43.67015301651379L91.97500000000001,37.49964932339915L99.05,32.28019314432544L106.125,28.165512278742106L113.2,24.821711300443425L120.27499999999999,22.66329552709672L127.35000000000001,22.371616637753533L134.42499999999998,27.696642009272093L141.5,30.119567386750408L148.57500000000002,32.33794303637117L155.65,32.11317926744523L162.725,32.38672682449253L169.79999999999998,30.20471902092854L176.875,30.88158125001677L183.95000000000002,26.988465937156203L191.025,23.658302849094675L198.1,21.104011297075804L205.17499999999998,19.203752622589164L212.25,18.056258047572076L219.32500000000002,16.729528121221648L226.4,15.673069836867858L233.475,15.009481759050125L240.54999999999998,14.411185448926819L247.625,14.00470760768911" style="fill: none;" fill="none"></path></g></g></g></g><g opacity="0.2"><g><g><g><path stroke="rgb(255, 112, 67)" stroke-width="2px" d="M35.375,413.25000000000006L42.449999999999996,110.26552391052246L49.525,77.61760872602463L56.6,59.50242680311203L63.675000000000004,49.87864565849304L70.75,41.43948984146116L77.825,34.761339247226694L84.89999999999999,31.90674197673796L91.97500000000001,26.951819479465467L99.05,23.27548545598982L106.125,21.923494756221753L113.2,20.926354944705945L120.27499999999999,39.113668620586374L127.35000000000001,40.246204555034616L134.42499999999998,34.07624316215513L141.5,37.50470530986784L148.57500000000002,34.03530281782148L155.65,31.579763710498792L162.725,32.00148296356199L169.79999999999998,27.943773686885816L176.875,29.62683928012846L183.95000000000002,19.47200042009352L191.025,17.330838561058027L198.1,16.26553398370741L205.17499999999998,15.988752365112285L212.25,15.321987390518169L219.32500000000002,14.86487638950346L226.4,15.023607730865459L233.475,14.209623456001262L240.54999999999998,14.074901461601238L247.625,13.538658142089824" style="fill: none;" fill="none"></path></g><g><path stroke="rgb(0, 119, 187)" stroke-width="2px" d="M35.375,413.25000000000006L42.449999999999996,102.99554032087326L49.525,73.22589468955994L56.6,59.62706279754639L63.675000000000004,49.227696776390076L70.75,40.98738294839857L77.825,34.85369485616682L84.89999999999999,31.24537003040312L91.97500000000001,28.399354934692365L99.05,24.529909014701825L106.125,22.030810832977277L113.2,19.824206650257093L120.27499999999999,19.432719469070417L127.35000000000001,21.934669733047468L134.42499999999998,35.67792069911955L141.5,33.75224661827085L148.57500000000002,35.66456776857374L155.65,31.77609068155287L162.725,32.79700648784635L169.79999999999998,26.931906759738904L176.875,31.89683747291563L183.95000000000002,21.148921072483045L191.025,18.66312396526335L198.1,17.272604227066022L205.17499999999998,16.353378117084485L212.25,16.33502107858656L219.32500000000002,14.739436626434307L226.4,14.088384032249431L233.475,14.014100253581981L240.54999999999998,13.513741314411144L247.625,13.394990980625133" style="fill: none;" fill="none"></path></g></g></g></g></g></g><g transform="translate(47, 174)" clip-path="url(#clip_1)"><clipPath id="clip_1"><rect width="283" height="26"></rect></clipPath><g><g><line x1="0" y1="0" x2="0" y2="5" style="visibility: inherit;" fill="rgb(0, 0, 0)" stroke="rgb(204, 204, 204)" stroke-width="1px"></line><line x1="35.375" y1="0" x2="35.375" y2="5" style="visibility: inherit;" fill="rgb(0, 0, 0)" stroke="rgb(204, 204, 204)" stroke-width="1px"></line><line x1="70.75" y1="0" x2="70.75" y2="5" style="visibility: inherit;" fill="rgb(0, 0, 0)" stroke="rgb(204, 204, 204)" stroke-width="1px"></line><line x1="106.125" y1="0" x2="106.125" y2="5" style="visibility: inherit;" fill="rgb(0, 0, 0)" stroke="rgb(204, 204, 204)" stroke-width="1px"></line><line x1="141.5" y1="0" x2="141.5" y2="5" style="visibility: inherit;" fill="rgb(0, 0, 0)" stroke="rgb(204, 204, 204)" stroke-width="1px"></line><line x1="176.875" y1="0" x2="176.875" y2="5" style="visibility: inherit;" fill="rgb(0, 0, 0)" stroke="rgb(204, 204, 204)" stroke-width="1px"></line><line x1="212.25" y1="0" x2="212.25" y2="5" style="visibility: inherit;" fill="rgb(0, 0, 0)" stroke="rgb(204, 204, 204)" stroke-width="1px"></line><line x1="247.625" y1="0" x2="247.625" y2="5" style="visibility: inherit;" fill="rgb(0, 0, 0)" stroke="rgb(204, 204, 204)" stroke-width="1px"></line><line x1="283" y1="0" x2="283" y2="5" style="visibility: inherit;" fill="rgb(0, 0, 0)" stroke="rgb(204, 204, 204)" stroke-width="1px"></line></g><g transform="translate(0, 8)"><text x="0" y="0" dx="0em" dy="0.95em" style="text-anchor: middle; visibility: hidden; font-family: Roboto, sans-serif; font-size: 12px; font-weight: 200;" fill="rgb(33, 33, 33)" stroke="none" stroke-width="1px">-5</text><text x="35.375" y="0" dx="0em" dy="0.95em" style="text-anchor: middle; visibility: inherit; font-family: Roboto, sans-serif; font-size: 12px; font-weight: 200;" fill="rgb(33, 33, 33)" stroke="none" stroke-width="1px">0</text><text x="70.75" y="0" dx="0em" dy="0.95em" style="text-anchor: middle; visibility: inherit; font-family: Roboto, sans-serif; font-size: 12px; font-weight: 200;" fill="rgb(33, 33, 33)" stroke="none" stroke-width="1px">5</text><text x="106.125" y="0" dx="0em" dy="0.95em" style="text-anchor: middle; visibility: inherit; font-family: Roboto, sans-serif; font-size: 12px; font-weight: 200;" fill="rgb(33, 33, 33)" stroke="none" stroke-width="1px">10</text><text x="141.5" y="0" dx="0em" dy="0.95em" style="text-anchor: middle; visibility: inherit; font-family: Roboto, sans-serif; font-size: 12px; font-weight: 200;" fill="rgb(33, 33, 33)" stroke="none" stroke-width="1px">15</text><text x="176.875" y="0" dx="0em" dy="0.95em" style="text-anchor: middle; visibility: inherit; font-family: Roboto, sans-serif; font-size: 12px; font-weight: 200;" fill="rgb(33, 33, 33)" stroke="none" stroke-width="1px">20</text><text x="212.25" y="0" dx="0em" dy="0.95em" style="text-anchor: middle; visibility: inherit; font-family: Roboto, sans-serif; font-size: 12px; font-weight: 200;" fill="rgb(33, 33, 33)" stroke="none" stroke-width="1px">25</text><text x="247.625" y="0" dx="0em" dy="0.95em" style="text-anchor: middle; visibility: inherit; font-family: Roboto, sans-serif; font-size: 12px; font-weight: 200;" fill="rgb(33, 33, 33)" stroke="none" stroke-width="1px">30</text><text x="283" y="0" dx="0em" dy="0.95em" style="text-anchor: middle; visibility: hidden; font-family: Roboto, sans-serif; font-size: 12px; font-weight: 200;" fill="rgb(33, 33, 33)" stroke="none" stroke-width="1px">35</text></g><line x1="0" y1="0" x2="283" y2="0" fill="rgb(0, 0, 0)" stroke="rgb(204, 204, 204)" stroke-width="1px"></line></g></g></g></g>
<g>
  <rect x="49" y="3" width="112" height="20" fill="white" fill-opacity="0.85" rx="2"/>
  <rect x="53" y="7" width="10" height="2" fill="rgb(255, 112, 67)" rx="1"/>
  <text x="66" y="11" font-family="Roboto, sans-serif" font-size="8" fill="rgb(33, 33, 33)">U-Net</text>
  <rect x="53" y="15" width="10" height="2" fill="rgb(0, 119, 187)" rx="1"/>
  <text x="66" y="19" font-family="Roboto, sans-serif" font-size="8" fill="rgb(33, 33, 33)">Attention U-Net</text>
</g>
</svg>